<svg xmlns="http://www.w3.org/2000/svg" viewBox="0 0 32 32" width="32" height="32">
  <!-- Background circle -->
  <circle cx="16" cy="16" r="15" fill="#1e40af" stroke="#ffffff" stroke-width="1"/>
  
  <!-- Car silhouette -->
  <path d="M8 18.5h2l1-3h10l1 3h2c0.55 0 1 0.45 1 1v2c0 0.55-0.45 1-1 1h-1v1.5c0 0.83-0.67 1.5-1.5 1.5S20 21.83 20 21v-1.5h-8V21c0 0.83-0.67 1.5-1.5 1.5S9 21.83 9 21v-1.5H8c-0.55 0-1-0.45-1-1v-2c0-0.55 0.45-1 1-1z" fill="#ffffff"/>
  
  <!-- Car windows -->
  <path d="M11.5 15.5h9l-0.5-2h-8l-0.5 2z" fill="#1e40af"/>
  
  <!-- Wheels -->
  <circle cx="11" cy="20" r="1.5" fill="#374151"/>
  <circle cx="21" cy="20" r="1.5" fill="#374151"/>
  
  <!-- Shield overlay for insurance/protection -->
  <path d="M16 8l-3 1.5v3c0 2 1.5 3.8 3 4.5c1.5-0.7 3-2.5 3-4.5v-3L16 8z" fill="#ffffff" opacity="0.9"/>
  <path d="M16 9l-2 1v2.5c0 1.3 1 2.5 2 3c1-0.5 2-1.7 2-3V10l-2-1z" fill="#10b981"/>
  
  <!-- Checkmark in shield -->
  <path d="M14.5 11.5l1 1l2-2" stroke="#ffffff" stroke-width="0.8" fill="none" stroke-linecap="round" stroke-linejoin="round"/>
</svg>